<!DOCTYPE svg PUBLIC "-//W3C//DTD SVG 20010904//EN" "http://www.w3.org/TR/2001/REC-SVG-20010904/DTD/svg10.dtd">
<svg version="1.0" xmlns="http://www.w3.org/2000/svg" width="276px" height="276px" viewBox="0 0 2760 2760" preserveAspectRatio="xMidYMid meet">
<g id="layer101" fill="#221f21" stroke="none">
 <path d="M1063 2720 c-103 -28 -300 -110 -400 -167 -93 -52 -270 -212 -347 -313 -121 -157 -242 -423 -257 -565 -5 -43 -13 -104 -18 -135 -24 -137 -23 -210 3 -370 15 -85 35 -185 46 -222 27 -90 145 -294 233 -404 71 -90 284 -304 301 -304 6 0 19 -8 30 -18 39 -35 164 -100 258 -135 159 -59 182 -62 433 -62 252 1 313 9 488 67 110 37 141 52 251 123 47 31 101 62 122 71 44 18 239 212 312 309 29 39 80 124 113 190 54 107 62 132 79 239 24 144 40 335 40 463 0 225 -98 495 -256 706 -207 277 -374 388 -744 499 l-135 41 -240 3 c-213 3 -248 1 -312 -16z"/>
 </g>
<g id="layer102" fill="#14a8e2" stroke="none">
 <path d="M1110 2330 c-299 -8 -360 -24 -457 -113 -80 -74 -138 -219 -149 -371 l-7 -96 149 0 149 0 12 60 c6 33 21 76 34 96 28 46 102 82 188 91 l63 6 -25 -49 c-29 -58 -67 -176 -67 -210 0 -15 16 -42 39 -66 l38 -42 34 40 c18 21 74 81 124 132 l91 94 80 19 c169 41 341 35 429 -15 50 -28 62 -48 48 -79 -15 -33 -301 -156 -382 -164 -34 -3 -64 -13 -76 -24 -26 -23 -74 -43 -145 -59 -30 -7 -88 -26 -128 -42 -50 -20 -112 -34 -193 -44 -66 -8 -144 -24 -172 -34 -183 -69 -320 -331 -303 -580 8 -109 24 -170 71 -259 70 -133 146 -196 266 -220 30 -6 269 -16 531 -23 435 -10 484 -9 545 6 249 60 371 221 390 512 l6 97 -89 -7 c-49 -3 -124 -9 -166 -12 l-77 -6 -11 -70 c-10 -57 -18 -75 -45 -103 -39 -39 -129 -75 -186 -75 -48 0 -53 11 -63 125 -3 44 -17 129 -31 189 -19 86 -22 112 -12 118 6 4 40 8 75 8 169 0 338 67 442 175 116 122 151 263 131 535 -12 164 -27 214 -86 302 -59 85 -129 134 -222 153 -74 16 -395 18 -843 5z m816 -715 c-35 -46 -60 -62 -143 -90 -75 -26 -184 -43 -168 -27 6 5 51 24 100 42 103 37 169 69 205 98 35 28 38 19 6 -23z m-416 -596 c13 -146 13 -151 -7 -170 -11 -11 -38 -23 -61 -26 -35 -5 -42 -2 -57 21 -11 16 -35 31 -65 40 -71 21 -108 43 -168 99 -66 63 -130 166 -110 178 7 5 112 9 234 9 l220 0 14 -151z m-654 -24 c8 -21 33 -49 59 -67 25 -18 65 -58 90 -89 29 -38 66 -69 107 -93 l63 -35 -115 0 c-196 -1 -240 35 -240 196 0 84 5 123 17 123 2 0 11 -16 19 -35z"/>
 </g>
<g id="layer103" fill="#f9fcfc" stroke="none">
 <path d="M1379 2186 c-14 -17 -37 -27 -65 -32 -119 -18 -255 -178 -299 -352 -16 -61 -16 -64 5 -97 43 -69 46 -68 181 74 l124 129 71 16 c205 45 360 38 460 -23 40 -24 48 -54 23 -85 -28 -35 -294 -146 -375 -156 -45 -6 -72 -15 -93 -32 -16 -14 -51 -31 -77 -38 -120 -31 -152 -42 -201 -68 -65 -34 -221 -170 -265 -231 -31 -44 -33 -50 -32 -131 1 -135 9 -153 132 -277 117 -120 163 -150 371 -242 117 -53 155 -60 224 -40 54 15 97 83 97 153 -2 197 -74 444 -128 434 -27 -5 -31 -55 -16 -184 15 -132 12 -154 -26 -174 -10 -5 -36 -10 -58 -10 -31 0 -43 5 -55 23 -10 15 -39 32 -82 46 -101 33 -205 132 -268 257 -15 30 -15 31 22 77 71 91 229 180 417 237 366 110 558 220 597 342 20 64 21 102 6 164 -11 42 -17 48 -103 101 -50 31 -118 65 -151 75 -33 11 -85 29 -115 41 -43 17 -81 22 -177 25 -120 4 -122 4 -144 -22z"/>
 </g>

</svg>