<!DOCTYPE svg PUBLIC "-//W3C//DTD SVG 20010904//EN" "http://www.w3.org/TR/2001/REC-SVG-20010904/DTD/svg10.dtd">
<svg version="1.0" xmlns="http://www.w3.org/2000/svg" width="640px" height="280px" viewBox="0 0 6400 2800" preserveAspectRatio="xMidYMid meet">
<g id="layer101" fill="#221e20" stroke="none">
<path d="M1265 2790 c-89 -5 -168 -14 -195 -23 -25 -8 -79 -25 -120 -37 -83 -24 -261 -110 -343 -164 -112 -75 -343 -312 -358 -369 -3 -13 -34 -65 -68 -117 -35 -52 -64 -103 -65 -115 -6 -41 -39 -141 -57 -171 -13 -21 -19 -48 -18 -80 1 -27 -6 -92 -16 -144 -24 -130 -26 -249 -5 -335 10 -38 23 -110 29 -159 15 -111 39 -181 90 -260 21 -34 51 -87 67 -119 15 -31 52 -87 83 -123 31 -36 65 -77 76 -91 62 -79 211 -214 311 -281 121 -81 322 -159 479 -187 54 -9 120 -12 196 -9 63 3 137 6 164 6 86 1 261 44 429 105 37 13 112 60 221 137 28 19 58 35 68 36 30 0 145 103 242 216 86 100 113 137 145 199 17 33 42 78 55 100 14 22 34 72 46 110 11 39 25 79 30 90 14 29 19 85 8 85 -5 0 -9 5 -9 11 0 5 4 8 9 5 5 -3 14 18 21 47 6 28 16 70 21 92 13 51 8 161 -7 158 -8 -1 -10 33 -8 115 5 171 -31 311 -134 517 -80 161 -258 379 -399 487 -77 59 -238 144 -294 154 -19 4 -47 14 -64 22 -70 36 -368 103 -445 100 -19 -1 -102 -4 -185 -8z m1526 -1510 l-9 -45 -1 52 c-1 58 12 107 17 63 1 -14 -2 -45 -7 -70z"/>
<path d="M3130 2646 c-8 -10 -8 -21 -2 -32 6 -11 6 -29 1 -48 -5 -17 -9 -43 -9 -57 0 -21 -7 -29 -30 -38 -35 -12 -37 -24 -9 -52 26 -26 18 -85 -9 -74 -10 4 -34 9 -54 12 -35 5 -38 4 -38 -18 0 -45 113 -99 240 -115 29 -4 65 1 104 12 51 16 61 23 73 53 19 44 6 74 -44 103 l-36 22 51 11 c28 7 62 19 75 28 23 15 25 15 21 -1 -14 -55 89 -126 177 -123 83 3 167 66 157 117 -5 28 -62 61 -126 75 l-57 11 25 17 c61 40 73 56 61 79 -13 25 -27 22 -110 -27 l-53 -32 4 28 c3 15 9 36 13 46 5 13 2 17 -13 17 -23 0 -46 -32 -56 -78 -9 -37 -16 -39 -40 -13 -23 25 -49 35 -173 66 -118 29 -127 30 -143 11z m172 -82 c74 -15 118 -33 118 -46 0 -4 -9 -8 -19 -8 -11 0 -23 -4 -26 -10 -3 -6 -48 -10 -101 -10 l-94 0 0 51 c0 51 0 51 28 44 15 -4 57 -13 94 -21z m348 -79 c35 -3 100 -32 100 -44 0 -19 -60 -42 -111 -43 -57 -2 -102 24 -107 62 -5 30 15 42 58 34 19 -4 46 -8 60 -9z m-420 -108 c8 -1 37 -13 64 -25 42 -19 47 -24 36 -37 -10 -12 -30 -15 -89 -13 l-76 3 -3 44 c-3 43 -3 44 25 37 15 -4 35 -8 43 -9z"/>
<path d="M3818 2572 c-26 -81 -26 -88 -10 -100 34 -26 45 -11 59 82 7 49 10 93 7 97 -15 24 -32 1 -56 -79z"/>
<path d="M3940 2655 c0 -3 6 -16 14 -28 11 -17 12 -35 5 -82 -18 -116 -29 -150 -52 -160 -33 -15 -33 -41 1 -53 75 -26 206 20 245 85 21 36 21 36 27 12 22 -80 118 -184 195 -212 69 -24 149 -23 175 3 43 43 15 76 -45 55 -70 -24 -154 11 -221 93 -35 43 -44 62 -44 93 0 73 75 115 157 89 52 -17 133 -61 133 -73 0 -5 -6 -7 -14 -4 -28 11 -176 29 -191 23 -21 -8 -19 -43 3 -50 9 -3 53 -13 97 -22 44 -9 96 -19 116 -23 21 -5 44 -4 52 1 10 5 19 4 24 -5 29 -47 262 -87 309 -53 18 14 18 15 -11 26 -16 6 -52 16 -78 21 -56 10 -138 44 -149 62 -15 24 -8 37 20 37 15 0 32 -4 38 -9 5 -5 27 -14 49 -21 22 -7 55 -19 73 -28 43 -19 65 -3 37 28 -16 18 -127 76 -195 102 -20 7 -22 11 -10 18 38 24 109 7 202 -47 63 -37 68 -38 68 -20 0 23 -74 86 -140 118 -54 26 -73 30 -114 26 -71 -6 -106 -46 -106 -119 0 -79 -23 -45 -26 39 -3 88 -2 83 -17 83 -18 0 -37 -43 -37 -81 0 -17 -3 -29 -7 -27 -155 77 -163 80 -207 74 -50 -8 -123 -52 -132 -79 -5 -17 -8 -16 -23 9 -25 41 -37 49 -115 78 -65 25 -106 33 -106 21z m130 -83 c75 -37 78 -106 5 -148 -42 -24 -85 -31 -85 -13 0 14 21 151 26 167 4 15 11 15 54 -6z"/>
<path d="M5132 2637 c-12 -13 -22 -34 -22 -48 0 -14 -5 -30 -12 -37 -6 -6 -12 -37 -14 -68 -1 -31 -7 -61 -13 -67 -6 -6 -11 -26 -11 -43 0 -44 -12 -49 -43 -19 -23 24 -26 24 -41 10 -19 -20 -19 -20 -4 -48 18 -34 29 -42 87 -61 98 -32 239 -2 284 59 51 70 21 130 -93 188 -41 21 -79 42 -84 47 -5 5 -1 29 8 56 20 58 20 54 -2 54 -10 0 -28 -10 -40 -23z m111 -193 c48 -26 72 -61 61 -88 -8 -22 -96 -48 -146 -44 -41 3 -43 4 -40 33 1 17 7 54 13 84 10 50 12 53 37 48 15 -3 49 -18 75 -33z"/>
<path d="M5407 2649 c-22 -13 -47 -61 -47 -91 0 -13 10 -51 23 -83 18 -46 33 -67 64 -89 73 -51 179 -44 221 15 17 24 25 24 37 -2 26 -56 167 -89 235 -54 25 13 42 13 147 0 141 -18 199 -19 209 -4 9 15 -10 26 -78 46 l-58 16 1 66 c0 36 4 89 9 116 8 51 0 75 -25 75 -18 0 -35 -69 -42 -165 l-6 -85 -38 0 c-36 0 -39 2 -39 29 0 25 -7 33 -52 55 -29 14 -61 26 -72 27 -12 0 -29 4 -39 8 -16 6 -12 11 27 36 49 31 54 41 34 68 -12 16 -16 16 -53 -4 -22 -12 -55 -30 -74 -42 l-34 -21 6 25 c4 13 10 34 13 47 9 33 -27 29 -48 -5 -17 -29 -32 -94 -30 -127 1 -23 -3 -19 -42 41 -57 87 -184 139 -249 102z m110 -64 c35 -11 62 -27 87 -55 79 -88 21 -143 -92 -89 -83 41 -110 131 -46 159 0 0 23 -7 51 -15z m358 -99 c33 -2 95 -32 95 -45 0 -16 -25 -30 -71 -40 -70 -16 -134 11 -143 61 -5 32 7 39 54 32 19 -3 49 -7 65 -8z"/>
<path d="M3804 2405 c-20 -31 -15 -59 14 -63 17 -3 25 4 36 29 8 18 12 39 9 46 -8 21 -41 15 -59 -12z"/>
<path d="M3008 784 c-2 -25 -1 -47 1 -50 2 -2 96 -4 208 -4 l203 0 0 -80 0 -80 -204 0 c-155 0 -205 -3 -207 -12 -2 -7 -4 -87 -4 -178 l0 -165 250 0 c232 0 250 1 249 18 -1 9 -2 31 -3 47 l-1 30 -205 0 -205 0 0 80 0 80 204 0 c154 0 205 3 208 13 4 12 4 29 0 235 l-2 112 -244 0 -244 0 -4 -46z"/>
<path d="M3797 823 c-4 -3 -7 -120 -7 -259 l0 -253 -102 -3 -103 -3 -3 -48 -3 -47 251 0 251 0 -3 48 -3 47 -102 3 -103 3 0 259 0 260 -33 0 c-19 0 -37 -3 -40 -7z"/>
<path d="M4160 520 l0 -310 250 0 250 0 -2 178 -3 177 -98 5 -97 5 95 120 c52 66 95 123 95 128 0 4 -24 7 -54 7 -48 0 -56 -3 -73 -28 -10 -16 -54 -74 -98 -130 l-80 -101 -52 -1 -53 0 0 130 0 130 -40 0 -40 0 0 -310z m420 -130 l0 -80 -170 0 -170 0 0 80 0 80 170 0 170 0 0 -80z"/>
<path d="M4735 817 c-3 -7 -4 -145 -3 -307 l3 -295 248 -3 247 -2 0 50 0 50 -204 0 -204 0 -4 80 -3 80 208 0 207 0 0 50 0 50 -205 0 -205 0 0 80 0 80 205 0 205 0 0 50 0 50 -245 0 c-189 0 -247 -3 -250 -13z"/>
<path d="M5310 520 l0 -310 251 0 250 0 -3 47 -3 48 -207 3 -208 2 0 80 0 80 210 0 210 0 0 50 0 50 -210 0 -210 0 0 80 0 80 210 0 210 0 0 50 0 50 -250 0 -250 0 0 -310z"/>
<path d="M6097 824 c-4 -4 -7 -121 -7 -260 l0 -253 -102 -3 -101 -3 0 -45 0 -45 250 -3 251 -2 -2 47 -1 48 -102 3 -103 3 -2 257 -3 257 -35 3 c-20 2 -39 0 -43 -4z"/>
</g>
<g id="layer102" fill="#132531" stroke="none">
<path d="M1758 2385 c-1 -2 -167 -6 -368 -9 -529 -9 -586 -15 -666 -70 -21 -14 -43 -26 -49 -26 -16 0 -61 -52 -79 -91 -9 -19 -23 -45 -31 -59 -49 -87 -78 -206 -68 -277 3 -21 1 -33 -6 -33 -17 0 -13 -25 7 -42 20 -18 211 -32 276 -20 37 7 40 10 57 66 10 32 17 62 14 66 -6 10 53 64 90 83 17 8 57 18 89 22 49 6 58 5 53 -6 -45 -108 -56 -141 -62 -181 -10 -65 -1 -92 41 -124 l35 -27 22 25 c12 13 58 66 101 116 108 125 126 135 269 157 196 30 371 5 403 -58 21 -39 9 -65 -39 -87 -270 -122 -291 -130 -341 -130 -37 0 -55 -5 -73 -22 -27 -26 -73 -43 -166 -63 -37 -8 -86 -24 -109 -36 -34 -17 -63 -22 -155 -24 -92 -2 -130 -8 -200 -31 -79 -26 -91 -33 -155 -98 -38 -38 -71 -81 -75 -95 -3 -14 -9 -28 -13 -31 -10 -8 -52 -80 -46 -80 3 0 1 -11 -4 -25 -18 -49 -22 -81 -27 -225 -4 -130 -3 -152 17 -210 12 -36 28 -75 36 -87 8 -12 14 -29 14 -38 0 -9 6 -18 14 -21 8 -3 22 -23 30 -45 9 -21 22 -39 30 -39 8 0 16 -7 20 -15 3 -8 12 -15 20 -15 9 0 13 -6 10 -14 -6 -15 48 -40 106 -50 19 -3 51 -10 70 -16 20 -7 152 -13 315 -16 154 -2 362 -7 461 -10 115 -4 209 -2 254 5 79 13 180 51 213 82 11 10 25 19 30 19 17 0 87 65 87 81 0 9 7 22 15 29 8 7 15 19 15 28 0 8 7 20 15 26 13 10 43 106 51 166 22 169 14 209 -40 211 -100 5 -264 -8 -294 -23 -24 -12 -31 -29 -36 -91 -2 -21 -8 -43 -15 -50 -6 -6 -11 -17 -11 -24 0 -8 -8 -16 -17 -20 -10 -3 -25 -11 -33 -18 -26 -21 -106 -41 -143 -37 -39 4 -47 22 -47 116 -1 28 -13 104 -29 169 l-28 117 80 0 c100 0 229 25 282 55 22 12 53 26 68 29 15 4 25 11 22 16 -3 5 9 16 27 23 18 8 49 33 68 57 19 24 41 49 48 56 6 7 12 20 12 28 0 9 5 16 10 16 6 0 10 11 10 24 0 13 6 29 14 35 37 31 49 228 27 456 -11 109 -19 145 -32 145 -5 0 -9 9 -9 21 0 21 -26 76 -46 94 -5 5 -23 29 -38 52 -16 24 -32 41 -35 38 -4 -2 -20 5 -37 16 -16 10 -37 19 -46 19 -10 0 -18 4 -18 10 0 5 -17 13 -37 19 -38 9 -218 22 -225 16z m102 -795 c-16 -11 -40 -13 -40 -5 0 8 44 24 50 18 2 -2 -2 -8 -10 -13z m-80 -25 c-7 -8 -24 -15 -39 -14 l-26 1 30 13 c40 18 50 18 35 0z m-372 -397 l103 -2 -7 -29 c-3 -16 -1 -34 6 -42 6 -8 9 -23 5 -34 -3 -11 1 -47 10 -81 25 -96 5 -130 -76 -130 -43 0 -51 3 -59 24 -7 19 -20 26 -70 34 -48 9 -72 20 -109 51 -101 85 -188 203 -158 214 6 3 66 3 132 1 66 -2 166 -5 223 -6z m-534 -171 c3 -14 26 -37 55 -55 29 -18 63 -51 83 -80 18 -27 52 -62 75 -77 24 -15 43 -30 43 -33 0 -4 -39 -6 -87 -4 -85 3 -163 24 -163 45 0 5 -8 19 -18 32 -15 18 -18 37 -16 82 2 32 3 70 4 86 0 33 16 36 24 4z"/>
</g>
<g id="layer103" fill="#5e5f61" stroke="none">
<path d="M1530 2360 c-85 -4 -263 -8 -395 -9 -249 -1 -292 -7 -386 -48 -92 -41 -167 -139 -212 -278 -13 -39 -36 -192 -37 -247 0 -5 69 -8 153 -8 l153 0 12 60 c6 34 21 77 33 96 29 47 106 85 185 92 l61 5 -34 -71 c-37 -78 -60 -174 -49 -215 3 -14 22 -38 42 -53 l35 -27 22 25 c12 13 58 66 101 116 108 125 126 135 269 157 196 30 371 5 403 -58 21 -39 9 -65 -39 -87 -270 -122 -291 -130 -341 -130 -37 0 -55 -5 -73 -22 -26 -24 -100 -52 -165 -63 -24 -4 -77 -22 -118 -40 -62 -27 -94 -34 -180 -40 -216 -15 -320 -86 -422 -290 -54 -107 -74 -312 -42 -445 16 -70 88 -212 135 -264 40 -47 142 -94 225 -105 38 -5 155 -10 259 -11 105 -1 249 -5 320 -9 206 -11 421 -6 489 13 247 68 380 282 367 590 -1 18 -7 19 -93 11 -51 -4 -113 -8 -138 -9 -100 -4 -98 -3 -109 -43 -6 -21 -11 -53 -11 -70 0 -70 -115 -143 -225 -143 l-42 0 -7 46 c-3 26 -6 66 -6 90 0 23 -13 100 -30 169 -16 69 -30 128 -30 131 0 2 42 4 93 4 243 1 437 109 522 293 51 110 59 167 51 357 -8 192 -25 263 -85 356 -50 78 -96 117 -165 143 -110 41 -173 45 -496 31z m422 -707 c-19 -34 -79 -84 -108 -89 -16 -3 -45 -13 -64 -23 -31 -16 -193 -41 -180 -28 3 3 65 26 137 50 127 43 174 67 203 102 17 20 25 12 12 -12z m-569 -469 l129 -7 -7 -34 c-4 -21 -2 -40 5 -48 7 -8 9 -23 5 -34 -3 -11 1 -47 10 -81 25 -96 5 -130 -76 -130 -43 0 -51 3 -59 24 -7 19 -20 26 -70 34 -66 12 -114 45 -197 135 -42 46 -89 125 -79 134 13 14 78 22 141 18 39 -3 128 -8 198 -11z m-513 -178 c7 -23 25 -43 60 -64 28 -18 63 -51 81 -80 21 -31 56 -64 93 -88 l60 -39 -107 -3 c-90 -2 -112 0 -146 17 -61 31 -84 67 -78 120 3 24 1 57 -4 74 -10 34 6 111 21 102 5 -3 14 -20 20 -39z"/>
<path d="M3445 2069 c-22 -10 -48 -19 -58 -19 -56 -1 -161 -84 -207 -165 -39 -68 -40 -116 -4 -144 15 -12 32 -21 38 -21 6 0 47 32 91 70 44 39 94 76 110 84 65 31 302 46 380 25 40 -11 75 -35 75 -50 0 -22 -239 -109 -300 -109 -19 0 -45 -7 -57 -15 -12 -8 -64 -24 -116 -35 -51 -10 -114 -27 -138 -36 -64 -26 -157 -88 -213 -142 l-48 -47 6 -55 c8 -87 28 -124 78 -148 24 -11 59 -37 78 -57 41 -43 76 -60 246 -120 111 -40 134 -44 178 -39 40 6 58 14 84 41 27 29 32 42 32 83 0 62 -42 225 -65 250 -10 11 -30 20 -46 20 -41 0 -51 -39 -32 -129 13 -57 14 -73 3 -86 -16 -19 -84 -20 -99 -1 -7 8 -31 18 -54 21 -79 13 -197 104 -224 173 -18 43 177 145 337 177 70 14 177 42 278 73 74 24 197 96 219 129 8 13 19 23 23 23 8 0 207 -305 235 -360 10 -19 33 -60 51 -90 18 -30 47 -89 65 -130 17 -41 37 -78 43 -82 6 -4 30 -8 53 -8 36 0 45 4 56 28 8 15 17 56 19 92 3 36 18 119 32 185 15 66 29 129 32 140 8 42 19 48 51 32 16 -8 45 -18 65 -22 31 -6 36 -4 41 17 9 35 -9 101 -33 118 -12 8 -33 24 -47 36 l-27 21 24 39 c13 21 41 72 62 111 44 82 41 106 -14 118 -29 7 -35 3 -84 -51 -31 -35 -57 -76 -64 -101 -7 -23 -21 -50 -31 -59 -18 -17 -23 -17 -67 -1 -26 9 -108 30 -182 47 -74 18 -149 40 -166 51 -18 11 -53 44 -79 74 -57 67 -83 71 -114 20 -22 -38 -38 -42 -79 -21 -15 7 -52 19 -82 25 -30 7 -74 18 -98 26 -63 22 -206 18 -257 -6z m1001 -376 c47 -13 64 -22 64 -34 0 -10 -13 -57 -30 -106 -16 -48 -30 -96 -30 -105 0 -40 -23 -12 -70 86 -28 57 -54 120 -57 140 -5 35 -5 36 27 36 17 0 61 -8 96 -17z"/>
<path d="M5168 2079 c-36 -14 -63 -73 -89 -195 -34 -157 -26 -148 -121 -141 -79 5 -82 5 -110 -23 -33 -33 -36 -72 -11 -124 20 -42 29 -47 113 -55 l65 -6 1 -167 1 -168 -45 0 c-81 0 -173 -22 -187 -44 -25 -40 -27 -80 -5 -108 25 -33 133 -54 223 -44 52 6 62 5 82 -14 21 -20 24 -20 63 -5 38 15 43 15 64 1 48 -34 274 -15 418 35 91 31 129 99 76 134 -20 14 -36 14 -114 5 -73 -9 -113 -8 -214 5 -67 9 -144 21 -169 26 l-47 10 -7 85 c-4 47 -4 116 0 154 8 81 15 86 102 71 31 -6 101 -11 154 -11 93 0 99 1 118 26 l20 25 11 -42 c9 -31 9 -48 0 -70 -24 -57 13 -116 94 -154 28 -13 67 -33 86 -44 33 -18 114 -41 220 -62 74 -15 248 -20 291 -9 47 13 72 52 48 74 -20 19 -141 56 -217 67 -57 8 -207 73 -303 132 -33 19 -61 82 -54 120 6 31 9 33 52 35 35 1 67 -8 132 -37 47 -21 123 -52 167 -70 45 -18 91 -43 103 -57 23 -27 62 -32 81 -9 13 16 6 61 -13 85 -24 30 -105 90 -173 128 -38 22 -107 62 -154 91 -47 28 -106 58 -132 67 -27 8 -48 22 -48 29 0 8 17 27 37 42 83 63 215 25 446 -131 70 -47 136 -86 147 -86 55 0 27 51 -98 181 -79 83 -109 107 -162 131 -36 16 -90 48 -120 71 -52 39 -60 42 -131 45 -65 3 -82 1 -125 -21 -64 -33 -127 -99 -158 -167 -24 -50 -26 -66 -26 -192 0 -127 -9 -169 -25 -119 -9 29 -42 46 -141 76 -49 15 -115 38 -146 52 l-58 26 0 51 c1 54 20 163 41 232 20 66 5 84 -53 63z"/>
<path d="M2780 1383 c0 -7 4 -13 9 -13 5 0 11 6 14 13 3 8 -1 14 -9 14 -8 0 -14 -6 -14 -14z"/>
<path d="M2765 1216 c-4 -20 -5 -43 -1 -51 3 -8 1 -15 -4 -15 -6 0 -10 -9 -10 -20 0 -25 19 -27 22 -2 2 23 3 32 12 70 5 21 4 38 -2 44 -7 7 -13 -1 -17 -26z"/>
<path d="M2738 1075 c-3 -14 -2 -28 2 -30 11 -7 21 38 11 48 -5 5 -11 -3 -13 -18z"/>
<path d="M6094 555 c0 -72 1 -99 3 -62 2 37 2 96 0 130 -2 34 -3 4 -3 -68z"/>
<path d="M3083 375 c0 -33 2 -45 4 -27 2 18 2 45 0 60 -2 15 -4 0 -4 -33z"/>
</g>
<g id="layer104" fill="#3c748f" stroke="none">
<path d="M1535 2360 c-88 -4 -268 -8 -400 -9 -249 -1 -292 -7 -386 -48 -92 -41 -167 -139 -213 -278 -17 -54 -37 -220 -29 -242 4 -11 37 -13 151 -11 l146 3 16 65 c9 36 24 78 34 93 28 41 109 79 183 85 60 5 75 -2 54 -23 -20 -20 -69 -152 -75 -202 -6 -48 -4 -54 25 -87 17 -20 37 -36 44 -36 6 0 36 28 66 63 93 108 163 179 192 194 15 7 83 23 149 34 99 16 137 18 202 10 109 -12 175 -38 198 -77 18 -30 18 -32 -2 -57 -11 -14 -44 -35 -73 -45 -28 -11 -96 -41 -151 -66 -81 -38 -109 -46 -157 -46 -48 0 -60 -4 -73 -22 -17 -25 -63 -43 -156 -64 -36 -8 -94 -27 -130 -43 -53 -24 -85 -30 -175 -36 -189 -12 -283 -61 -372 -195 -87 -130 -119 -252 -110 -420 7 -123 21 -174 79 -278 88 -161 179 -210 398 -217 777 -23 862 -24 942 -5 63 15 168 59 168 71 0 5 6 9 14 9 24 0 116 109 147 173 38 83 61 192 57 281 l-3 71 -60 -1 c-98 -1 -256 -11 -261 -17 -9 -8 -23 -79 -24 -112 -1 -67 -129 -141 -232 -133 l-43 3 -6 95 c-4 52 -18 144 -33 203 -14 60 -26 115 -26 123 0 11 20 14 93 14 243 1 437 109 522 293 51 110 59 167 51 357 -8 195 -25 266 -89 361 -106 159 -223 189 -652 169z m421 -697 c-22 -43 -79 -93 -112 -99 -16 -3 -45 -13 -64 -23 -31 -16 -203 -41 -190 -28 3 3 68 27 145 53 110 37 149 55 184 86 24 21 46 38 48 38 2 0 -3 -12 -11 -27z m-523 -478 l77 0 2 -47 c3 -83 5 -102 17 -156 16 -75 14 -90 -14 -117 -18 -19 -35 -25 -70 -25 -39 0 -47 3 -55 25 -5 13 -20 27 -32 30 -13 2 -42 9 -65 14 -30 6 -62 26 -108 66 -63 56 -145 163 -145 191 0 7 12 16 28 20 15 3 32 7 37 9 6 2 64 1 130 -3 66 -4 155 -7 198 -7z m-563 -171 c9 -26 26 -44 60 -66 28 -17 66 -54 88 -87 26 -36 58 -67 91 -86 28 -16 51 -33 51 -37 0 -4 -47 -8 -105 -8 -86 0 -113 4 -144 20 -61 30 -84 66 -78 119 3 24 1 57 -4 74 -9 33 5 107 21 107 4 0 14 -16 20 -36z"/>
<path d="M3445 2069 c-22 -10 -48 -19 -58 -19 -56 -1 -161 -84 -207 -165 -39 -68 -40 -116 -4 -144 15 -12 32 -21 38 -21 6 0 47 32 91 70 44 39 94 76 110 84 65 31 302 46 380 25 40 -11 75 -35 75 -50 0 -22 -239 -109 -300 -109 -19 0 -45 -7 -57 -15 -12 -8 -64 -24 -116 -35 -51 -10 -114 -27 -138 -36 -64 -26 -157 -88 -213 -142 l-48 -47 6 -55 c8 -87 28 -124 78 -148 24 -11 59 -37 78 -57 41 -43 76 -60 246 -120 111 -40 134 -44 178 -39 40 6 58 14 84 41 27 29 32 42 32 83 0 62 -42 225 -65 250 -10 11 -30 20 -46 20 -41 0 -51 -39 -32 -129 13 -57 14 -73 3 -86 -16 -19 -84 -20 -99 -1 -7 8 -31 18 -54 21 -79 13 -197 104 -224 173 -18 44 177 145 342 178 39 7 129 31 201 52 137 40 261 103 291 149 8 13 19 23 23 23 9 0 209 -308 240 -370 12 -25 32 -58 43 -73 11 -16 36 -66 57 -112 48 -109 53 -115 106 -115 37 0 45 4 57 28 8 15 17 56 19 92 3 36 18 119 32 185 15 66 29 129 32 140 8 42 19 48 51 32 16 -8 45 -18 65 -22 31 -6 36 -4 41 17 9 35 -9 101 -33 118 -12 8 -33 24 -47 36 l-27 21 24 39 c13 21 41 72 62 111 44 82 41 106 -14 118 -29 7 -35 3 -84 -51 -31 -35 -57 -76 -64 -101 -7 -23 -21 -50 -31 -59 -18 -17 -23 -17 -67 -1 -26 9 -108 30 -182 47 -74 18 -149 40 -166 51 -18 11 -53 44 -79 74 -57 67 -83 71 -114 20 -22 -38 -38 -42 -79 -21 -15 7 -52 19 -82 25 -30 7 -74 18 -98 26 -63 22 -206 18 -257 -6z m1001 -376 c47 -13 64 -22 64 -34 0 -10 -13 -57 -30 -106 -16 -48 -30 -96 -30 -105 0 -40 -23 -12 -70 86 -28 57 -54 120 -57 140 -5 35 -5 36 27 36 17 0 61 -8 96 -17z"/>
<path d="M5168 2079 c-36 -14 -63 -73 -89 -195 -34 -157 -26 -148 -121 -141 -79 5 -82 5 -110 -23 -33 -33 -36 -72 -11 -124 20 -42 29 -47 113 -55 l65 -6 1 -167 1 -168 -45 0 c-81 0 -173 -22 -187 -44 -25 -40 -27 -80 -5 -108 25 -33 133 -54 223 -44 52 6 62 5 82 -14 21 -20 24 -20 63 -5 38 15 43 15 64 1 48 -34 274 -15 418 35 91 31 129 99 76 134 -20 14 -36 14 -114 5 -73 -9 -113 -8 -214 5 -67 9 -144 21 -169 26 l-47 10 -7 85 c-4 47 -4 116 0 154 8 81 15 86 102 71 31 -6 101 -11 154 -11 93 0 99 1 118 26 l20 25 11 -42 c9 -31 9 -48 0 -70 -24 -57 13 -116 94 -154 28 -13 67 -33 86 -44 33 -18 114 -41 220 -62 74 -15 248 -20 291 -9 47 13 72 52 48 74 -20 19 -141 56 -218 67 -46 7 -98 27 -190 73 -111 55 -129 68 -149 104 -17 30 -21 50 -17 74 6 32 9 34 52 36 35 1 67 -8 132 -37 47 -21 123 -52 167 -70 45 -18 91 -43 103 -57 23 -27 62 -32 81 -9 13 16 6 61 -13 85 -24 30 -105 90 -173 128 -38 22 -107 62 -154 91 -47 28 -106 58 -132 67 -27 8 -48 22 -48 29 0 8 17 27 37 42 83 63 215 25 446 -131 70 -47 136 -86 147 -86 55 0 27 51 -98 181 -79 83 -109 107 -162 131 -36 16 -90 48 -120 71 -52 39 -60 42 -131 45 -65 3 -82 1 -125 -21 -64 -33 -127 -99 -158 -167 -24 -50 -26 -66 -26 -192 0 -127 -9 -169 -25 -119 -9 29 -42 46 -141 76 -49 15 -115 38 -146 52 l-58 26 0 51 c1 54 20 163 41 232 20 66 5 84 -53 63z"/>
</g>
<g id="layer105" fill="#11a9e3" stroke="none">
<path d="M1455 2350 c-33 -3 -159 -5 -280 -3 -236 3 -310 -4 -402 -39 -142 -54 -242 -225 -259 -444 -6 -74 -5 -81 12 -86 33 -8 153 -10 218 -3 l63 7 6 49 c14 118 91 181 235 192 51 4 65 -6 43 -28 -20 -20 -69 -152 -75 -202 -6 -48 -4 -54 25 -87 17 -20 37 -36 44 -36 6 0 36 28 66 63 93 108 163 179 192 194 15 7 83 23 149 34 99 16 137 18 202 10 109 -12 175 -38 198 -77 18 -30 18 -32 -2 -57 -11 -14 -44 -35 -73 -45 -28 -11 -96 -41 -151 -66 -81 -38 -109 -46 -157 -46 -48 0 -60 -4 -73 -22 -17 -25 -63 -43 -156 -64 -36 -8 -96 -28 -134 -45 -57 -27 -84 -32 -165 -36 -166 -8 -281 -62 -355 -165 -123 -174 -164 -393 -110 -588 32 -116 123 -250 198 -294 83 -49 154 -58 486 -63 347 -5 314 -5 360 2 31 4 32 3 10 -5 -19 -7 -13 -8 28 -4 29 2 60 7 70 10 15 5 15 4 2 -6 -12 -9 14 -10 110 -7 143 5 215 26 311 90 66 43 136 134 162 210 24 69 46 189 47 255 l0 54 -148 -6 c-143 -5 -182 -11 -182 -25 0 -3 -5 -35 -10 -70 -7 -53 -14 -69 -42 -95 -37 -34 -108 -63 -181 -72 -61 -8 -67 -1 -67 91 0 43 -13 124 -33 211 l-33 141 111 6 c193 11 314 59 426 171 76 75 144 260 134 360 -3 23 -7 100 -10 171 -6 172 -24 230 -105 338 -43 57 -125 107 -211 126 -48 11 -397 12 -494 1z m501 -698 c-20 -39 -82 -92 -107 -92 -11 0 -36 -8 -57 -19 -20 -10 -62 -22 -92 -25 -30 -4 -73 -9 -95 -12 -61 -7 -27 9 130 62 111 37 149 55 184 86 24 21 46 36 48 34 3 -2 -2 -17 -11 -34z m-450 -466 c1 0 5 -39 8 -86 3 -47 11 -103 16 -125 15 -62 12 -84 -15 -110 -18 -19 -35 -25 -70 -25 -39 0 -47 3 -55 25 -5 13 -20 27 -32 30 -13 2 -42 9 -65 14 -69 14 -194 135 -247 238 -21 41 -21 41 12 46 22 4 444 -2 448 -7z m-572 -241 c26 -15 60 -48 82 -81 26 -37 58 -67 99 -92 l60 -37 -83 -9 c-133 -13 -208 7 -248 69 -21 32 -28 182 -11 239 l11 40 23 -52 c17 -39 32 -57 67 -77z"/>
<path d="M3480 2080 c0 -5 -3 -9 -7 -8 -16 3 -63 -14 -58 -22 2 -4 -6 -5 -19 -3 -26 5 -86 -21 -86 -38 0 -6 -4 -8 -10 -4 -22 14 -130 -111 -112 -130 4 -5 2 -5 -4 -2 -15 8 -34 -36 -34 -78 0 -33 28 -64 44 -48 3 3 6 -1 6 -10 0 -9 6 -17 14 -17 18 0 38 25 28 35 -4 5 -2 5 4 2 6 -4 20 1 30 9 10 9 12 12 4 8 -13 -7 -13 -6 -1 9 8 10 16 15 19 12 9 -8 32 17 25 28 -3 5 -2 7 4 4 5 -4 28 7 50 23 48 35 99 48 229 55 54 4 114 8 132 9 17 2 32 1 32 -3 0 -4 23 -13 50 -20 54 -14 60 -26 34 -66 -15 -23 -43 -37 -29 -15 3 6 -1 7 -9 4 -9 -3 -16 -10 -16 -15 0 -4 -7 -6 -15 -3 -8 4 -15 1 -15 -5 0 -6 -7 -8 -15 -5 -8 4 -15 1 -15 -6 0 -6 -4 -8 -10 -5 -5 3 -10 1 -10 -5 0 -7 -7 -10 -15 -7 -8 4 -17 2 -20 -3 -3 -5 -12 -7 -19 -4 -7 3 -21 -2 -29 -11 -10 -10 -37 -16 -71 -18 -31 -1 -56 -5 -56 -9 0 -5 -8 -8 -19 -8 -10 0 -24 -7 -31 -15 -13 -15 -45 -22 -36 -7 2 4 -20 3 -50 -2 -30 -6 -54 -14 -54 -18 0 -4 -6 -5 -14 -2 -7 3 -16 -2 -20 -11 -4 -11 -12 -14 -26 -10 -12 4 -20 2 -20 -5 0 -6 -4 -9 -9 -5 -9 5 -151 -80 -151 -91 0 -3 5 -2 12 2 7 5 8 3 4 -5 -5 -7 -11 -10 -14 -6 -12 12 -82 -69 -82 -95 0 -43 12 -100 20 -95 4 2 15 -14 25 -36 12 -26 30 -45 49 -54 17 -7 49 -31 71 -52 45 -44 127 -86 167 -86 15 0 24 -5 21 -10 -4 -6 3 -8 15 -5 14 4 20 2 15 -5 -4 -6 0 -8 10 -4 10 3 17 2 17 -2 0 -5 7 -12 16 -15 8 -3 12 -2 9 3 -3 5 14 2 37 -7 24 -9 45 -20 46 -24 2 -5 10 -8 18 -8 9 0 12 5 9 10 -5 9 38 15 92 13 7 0 11 3 10 8 -1 5 12 20 28 34 17 15 24 23 17 20 -11 -6 -13 10 -12 72 1 43 1 89 0 103 -1 23 -2 23 -10 5 -7 -16 -9 -17 -9 -3 -1 9 -4 25 -7 35 -5 15 -4 16 6 3 10 -13 11 -12 6 3 -3 10 -6 21 -6 23 0 3 -5 2 -10 -1 -6 -3 -13 2 -17 12 -14 41 -63 73 -63 42 0 -7 -6 -17 -14 -23 -16 -13 -10 -80 6 -70 6 4 7 -2 3 -16 -5 -15 -3 -20 3 -16 6 3 14 -3 17 -15 5 -14 0 -29 -17 -47 -12 -15 -15 -20 -5 -13 11 9 17 10 17 2 0 -12 -8 -14 -61 -11 -52 2 -67 5 -76 15 -4 4 -2 5 6 0 10 -6 12 -4 6 4 -4 8 -17 10 -32 6 -14 -3 -22 -2 -19 3 5 8 -25 18 -71 24 -7 1 -10 4 -8 8 4 7 -68 51 -82 50 -5 0 -8 3 -8 8 0 10 -45 82 -52 82 -3 0 -2 -7 1 -16 3 -9 2 -12 -5 -9 -12 8 -2 43 17 63 8 7 11 19 7 25 -3 7 -3 9 2 5 7 -7 117 50 123 64 2 4 10 4 19 1 12 -5 14 -3 8 7 -5 8 -4 11 2 7 5 -3 44 5 87 19 42 13 87 24 99 24 12 1 88 20 168 43 168 49 250 92 283 149 11 21 25 38 29 38 5 0 5 -4 2 -10 -3 -6 1 -7 9 -4 9 4 18 -1 22 -10 3 -9 9 -14 13 -11 4 2 8 -1 8 -8 0 -23 65 -117 75 -110 7 3 8 1 4 -5 -9 -15 18 -55 29 -44 5 4 5 1 1 -6 -5 -8 5 -24 26 -44 18 -17 26 -28 18 -23 -18 11 15 -43 39 -63 9 -8 10 -11 4 -7 -9 4 -11 1 -7 -9 3 -9 11 -13 17 -9 6 4 8 0 4 -9 -3 -9 1 -24 9 -35 13 -17 14 -17 8 2 -5 18 -4 18 6 2 6 -9 9 -21 6 -26 -3 -5 1 -12 10 -15 9 -4 15 -9 12 -12 -9 -9 81 -199 94 -199 7 -1 12 -7 10 -14 -2 -9 11 -11 45 -9 40 2 48 6 49 23 1 11 3 31 4 45 l2 25 9 -25 c6 -17 7 1 5 55 -2 51 0 73 6 60 5 -14 6 -7 3 20 -4 31 -3 36 5 25 9 -11 10 -7 5 20 -5 27 -4 32 5 20 9 -12 10 -9 5 13 -4 19 -2 26 4 22 7 -4 8 0 4 10 -3 10 -1 20 5 24 6 3 13 37 16 75 3 37 7 70 9 73 3 2 31 0 63 -6 89 -17 88 -18 80 35 -3 26 -12 54 -19 62 -10 13 -9 14 3 7 9 -5 12 -5 7 1 -5 5 -25 14 -45 19 -50 14 -56 53 -14 95 30 29 92 137 73 125 -7 -3 -8 0 -5 9 3 9 11 13 18 9 8 -5 8 -3 0 8 -5 8 -10 21 -9 29 1 21 -45 29 -77 13 -25 -12 -33 -24 -29 -45 0 -5 -4 -8 -9 -8 -6 0 -15 -12 -20 -26 -6 -14 -14 -22 -20 -19 -6 3 -7 -1 -4 -9 3 -9 1 -16 -6 -16 -6 0 -8 -5 -5 -10 7 -12 -4 -54 -13 -46 -3 3 -12 0 -21 -8 -18 -15 -64 -28 -56 -16 7 11 -22 21 -42 13 -12 -5 -14 -3 -8 7 6 10 1 12 -26 7 -19 -3 -27 -3 -19 0 20 8 -139 45 -164 38 -17 -5 -18 -4 -6 4 12 9 9 11 -15 13 -16 1 -41 1 -55 1 -14 -1 -19 1 -12 4 10 4 5 11 -14 24 -15 10 -31 16 -35 14 -3 -3 -15 5 -25 18 l-19 22 24 -20 c19 -15 17 -10 -9 23 -32 41 -55 60 -30 25 7 -10 -1 -4 -17 13 l-30 30 -36 -31 c-20 -18 -37 -37 -37 -44 0 -6 -4 -11 -10 -11 -5 0 -10 5 -10 11 0 5 -4 7 -10 4 -5 -3 -10 -1 -10 5 0 6 -4 8 -10 5 -5 -3 -10 -2 -10 4 0 6 -7 7 -17 4 -12 -5 -14 -3 -8 7 6 10 3 12 -13 8 -12 -4 -22 -2 -22 4 0 6 -13 8 -30 6 -16 -3 -27 -2 -25 1 3 3 -18 13 -47 22 -59 20 -238 26 -238 9z m-200 -93 c0 -2 -17 -19 -37 -38 l-38 -34 34 38 c33 34 41 42 41 34z m288 -74 c-10 -2 -26 -2 -35 0 -10 3 -2 5 17 5 19 0 27 -2 18 -5z m889 -217 c11 0 19 -4 16 -8 -2 -5 3 -8 12 -8 9 0 23 -7 32 -16 14 -13 14 -16 0 -27 -14 -11 -60 -142 -63 -180 -1 -10 -8 -26 -17 -34 -13 -14 -16 -13 -21 5 -4 11 -6 24 -5 28 3 15 -13 44 -21 39 -10 -6 -32 44 -24 57 4 7 2 8 -4 4 -11 -7 -17 6 -13 28 4 19 -11 46 -21 40 -7 -5 -9 -1 -5 9 3 10 2 17 -2 17 -5 0 -12 7 -15 16 -3 8 -2 12 4 9 6 -3 10 4 10 16 0 21 3 21 58 14 31 -4 67 -8 79 -9z m-1437 -261 l-8 -40 -1 36 c0 20 2 39 6 42 11 11 11 4 3 -38z"/>
<path d="M5175 2080 c-13 -6 -15 -9 -5 -9 8 -1 -2 -13 -22 -27 -31 -22 -37 -31 -32 -50 4 -16 2 -24 -6 -24 -7 0 -10 -7 -6 -16 3 -8 2 -13 -3 -10 -12 8 -22 -34 -15 -64 5 -20 3 -22 -5 -10 -8 11 -9 5 -5 -25 4 -31 3 -37 -6 -25 -9 12 -11 8 -7 -19 3 -24 -2 -40 -17 -56 -19 -20 -28 -22 -98 -17 l-77 5 -20 -34 c-46 -75 4 -141 114 -151 47 -4 55 -15 55 -75 0 -34 4 -52 10 -48 6 4 10 -22 10 -70 0 -58 -3 -77 -15 -81 -8 -4 -15 -14 -15 -23 0 -14 2 -14 11 -1 7 11 9 7 5 -17 -5 -38 -13 -53 -29 -53 -8 0 -8 3 1 9 19 11 -73 12 -126 0 -45 -10 -58 -19 -79 -57 -17 -30 -16 -53 4 -81 10 -15 11 -21 3 -16 -9 5 -11 4 -6 -4 5 -7 20 -9 41 -5 25 4 39 2 50 -10 19 -18 98 -22 140 -6 20 8 35 6 60 -6 25 -12 38 -13 54 -5 14 8 28 8 48 -1 15 -6 38 -10 50 -9 11 1 24 -2 27 -7 8 -14 176 -15 176 -2 0 6 10 10 23 9 42 -4 68 1 62 11 -3 6 0 10 9 10 8 0 23 3 33 6 15 5 16 4 3 -6 -13 -10 -12 -11 3 -6 10 3 26 6 35 6 13 0 14 2 4 8 -9 6 0 13 28 22 27 9 47 25 62 48 21 34 21 35 3 48 -10 8 -24 14 -29 14 -6 0 -4 5 4 10 12 7 8 10 -15 10 -23 0 -27 -3 -15 -10 10 -7 -3 -9 -45 -5 -33 3 -52 2 -43 -2 10 -5 -11 -8 -51 -8 -39 0 -64 4 -57 8 6 5 -13 6 -42 3 -37 -3 -51 -2 -46 6 5 7 -8 9 -42 5 -36 -5 -44 -4 -29 3 16 8 11 9 -22 6 -25 -2 -43 0 -43 6 0 6 -11 7 -25 4 -14 -4 -25 -2 -25 3 0 5 -10 11 -22 14 -18 5 -19 8 -8 21 10 13 10 19 0 31 -8 10 -11 33 -8 65 3 27 2 53 -2 57 -13 15 2 101 20 121 10 11 17 22 15 24 -3 2 28 -2 68 -9 83 -14 251 -17 243 -4 -3 5 1 12 10 15 25 10 27 7 13 -11 -11 -15 -10 -14 9 1 23 20 30 32 11 20 -8 -5 -10 1 -7 19 3 17 1 24 -5 20 -6 -4 -8 0 -4 10 3 9 3 16 -1 15 -18 -3 -71 25 -65 35 4 7 0 8 -12 3 -11 -4 -26 0 -38 11 -11 10 -17 12 -13 6 4 -7 2 -13 -3 -13 -6 0 -11 4 -11 9 0 13 -67 34 -81 25 -7 -4 -9 -3 -6 3 4 6 -2 13 -13 16 -11 3 -18 1 -14 -4 7 -12 -7 -11 -26 1 -13 9 -13 10 0 10 8 1 -3 10 -25 22 -51 26 -50 25 -35 43 7 8 10 30 8 50 -2 19 -1 35 3 35 4 0 8 8 8 18 1 57 9 115 17 120 12 9 12 102 -1 101 -5 0 -19 -4 -30 -9z m233 -567 c-21 -2 -55 -2 -75 0 -21 2 -4 4 37 4 41 0 58 -2 38 -4z m-425 -500 c-13 -2 -35 -2 -50 0 -16 2 -5 4 22 4 28 0 40 -2 28 -4z"/>
<path d="M5735 2058 c-35 -17 -106 -81 -112 -101 -2 -4 -6 -7 -9 -6 -13 1 -54 -91 -47 -107 4 -12 3 -15 -6 -10 -9 6 -12 -26 -10 -145 2 -161 5 -192 21 -183 5 3 6 -5 3 -18 -2 -12 -6 -48 -7 -78 -2 -42 0 -55 11 -55 8 0 16 -6 19 -14 3 -9 0 -11 -9 -7 -8 4 -1 -4 15 -19 18 -17 36 -25 48 -21 11 2 17 2 14 -1 -12 -12 100 -71 147 -77 26 -4 64 -14 84 -23 23 -9 52 -13 77 -9 31 4 36 3 21 -4 -15 -8 -5 -9 37 -7 31 2 55 0 52 -5 -3 -4 7 -8 21 -8 15 0 24 4 20 10 -3 6 3 10 14 10 12 0 21 -4 21 -8 0 -5 17 -9 38 -10 29 0 33 2 17 8 -19 8 -19 9 2 9 48 2 98 41 72 56 -5 4 -7 11 -3 16 3 6 -5 7 -22 3 -17 -5 -25 -3 -21 3 9 15 -83 44 -113 36 -17 -5 -21 -3 -15 7 6 9 -2 11 -33 8 -23 -2 -38 1 -35 6 3 5 -6 7 -20 4 -16 -3 -24 -1 -20 5 3 5 -3 6 -15 3 -12 -4 -23 -2 -28 5 -5 8 -2 10 7 5 8 -4 5 0 -5 8 -24 19 -40 21 -30 4 4 -7 -5 0 -19 15 -19 19 -33 26 -46 22 -11 -3 -23 0 -27 6 -5 8 -2 10 7 5 8 -4 5 0 -6 8 -11 9 -25 14 -33 11 -7 -2 -10 0 -7 5 6 10 5 11 -33 15 -12 1 -26 6 -30 10 -4 5 0 6 9 2 14 -4 13 2 -6 36 -52 95 -41 118 51 111 84 -6 93 -7 88 -15 -5 -9 143 -72 176 -75 14 -1 29 -3 33 -3 5 -1 5 -6 1 -12 -4 -8 1 -9 17 -4 13 4 21 4 17 0 -5 -5 6 -16 22 -26 17 -11 30 -23 30 -28 0 -5 8 -7 19 -4 10 3 22 0 25 -6 11 -17 26 -13 19 6 -5 12 -2 15 10 10 15 -6 16 -3 7 13 -6 11 -8 26 -4 32 4 7 3 8 -4 4 -11 -6 -17 12 -13 36 0 4 -6 5 -14 2 -9 -4 -15 0 -15 8 0 8 -25 33 -56 56 -50 38 -72 47 -96 43 -5 0 -8 3 -8 9 0 5 -7 6 -17 3 -10 -4 -14 -2 -10 5 4 6 -7 21 -25 33 -17 13 -28 17 -23 10 5 -9 3 -12 -6 -9 -8 3 -13 10 -12 16 2 6 -3 9 -11 6 -8 -3 -17 0 -22 7 -5 8 -3 10 7 5 8 -4 5 0 -6 8 -11 9 -25 14 -33 11 -7 -2 -10 0 -7 5 6 10 -48 40 -107 59 -40 13 -48 30 -23 51 8 7 12 17 8 23 -3 5 -1 7 4 4 6 -4 25 1 43 9 22 12 46 15 79 11 51 -6 199 -66 238 -97 14 -11 29 -17 34 -14 5 3 9 1 9 -5 0 -12 80 -67 98 -66 6 0 12 -4 11 -8 -1 -12 34 -36 43 -31 5 3 8 1 8 -4 0 -14 33 -10 43 5 10 16 -13 64 -27 56 -6 -3 -8 -3 -4 2 10 11 -10 45 -26 45 -15 0 -56 42 -56 57 0 5 -10 18 -22 29 -14 12 -18 14 -13 4 4 -8 -6 -2 -23 14 -33 30 -41 43 -20 30 7 -4 8 -3 4 4 -4 7 -16 17 -28 23 -14 8 -18 8 -14 0 5 -7 1 -9 -8 -5 -9 3 -13 11 -9 17 4 6 -4 8 -23 3 -18 -4 -24 -3 -16 2 11 7 10 10 -3 16 -9 3 -22 3 -28 -1 -7 -3 -9 -3 -5 2 5 5 -14 23 -41 41 -27 19 -52 38 -56 44 -3 5 -12 10 -18 10 -7 0 -6 -4 3 -11 12 -9 12 -10 -3 -5 -10 3 -24 6 -30 6 -7 0 -6 4 2 9 10 6 -11 10 -60 10 -55 0 -84 -6 -114 -21z"/>
</g>
<g id="layer106" fill="#d2f3f5" stroke="none">
<path d="M1386 2205 c-5 -18 -13 -25 -30 -25 -47 0 -118 -29 -159 -66 -91 -82 -148 -177 -172 -293 -12 -55 -12 -68 1 -92 17 -34 61 -66 74 -53 4 5 49 56 99 113 121 139 135 147 284 172 138 23 229 20 330 -11 51 -16 65 -25 80 -54 26 -46 13 -66 -65 -100 -35 -16 -107 -48 -160 -72 -75 -34 -109 -44 -150 -44 -40 0 -57 -5 -77 -23 -30 -27 -91 -51 -171 -68 -72 -15 -190 -71 -222 -106 -14 -16 -51 -50 -82 -77 -32 -26 -74 -73 -94 -103 -34 -52 -36 -58 -33 -131 1 -48 10 -99 23 -134 17 -49 28 -62 69 -88 28 -17 62 -51 83 -81 41 -61 118 -113 256 -174 52 -23 120 -54 152 -69 54 -25 59 -25 119 -13 57 12 67 17 98 57 l34 45 -6 110 c-9 153 -55 341 -92 373 -15 12 -32 21 -38 19 -29 -9 -31 -108 -5 -237 15 -73 13 -88 -13 -116 -18 -19 -33 -24 -76 -24 -39 0 -53 4 -53 14 0 26 -28 43 -83 50 -51 7 -59 12 -140 89 -79 76 -137 160 -137 200 0 21 60 92 110 130 72 55 239 134 316 150 38 8 83 21 99 29 17 9 93 37 170 63 103 35 153 58 190 87 28 21 71 54 96 73 41 30 48 41 67 107 16 56 19 83 13 109 -5 19 -12 46 -15 61 -5 20 -28 41 -90 81 -112 74 -117 76 -183 88 -31 6 -79 22 -105 35 -43 22 -60 24 -177 24 l-129 0 -6 -25z"/>
</g>
<g id="layer107" fill="#fbfdfc" stroke="none">
<path d="M1410 2201 c-14 -20 -87 -51 -120 -51 -20 0 -45 -19 -135 -105 -81 -78 -120 -150 -131 -248 -6 -51 -5 -56 27 -91 l33 -38 33 36 c19 20 31 42 27 48 -4 6 -3 8 3 5 6 -4 43 29 82 73 40 43 86 88 104 98 49 30 248 56 355 48 48 -4 97 -8 109 -9 11 -1 19 -5 17 -9 -2 -3 9 -9 24 -13 30 -6 72 -53 72 -80 0 -26 -43 -61 -101 -83 -30 -11 -96 -41 -148 -66 -77 -38 -104 -46 -149 -46 -42 0 -59 -5 -72 -20 -19 -22 -101 -53 -171 -65 -24 -4 -75 -22 -114 -41 -54 -26 -77 -43 -100 -78 -16 -25 -40 -51 -54 -58 -38 -20 -86 -71 -117 -124 -27 -46 -29 -55 -26 -137 5 -123 18 -154 80 -197 29 -19 66 -57 83 -83 33 -50 112 -108 171 -125 48 -14 135 -49 198 -81 72 -36 105 -42 162 -27 39 10 52 20 83 64 l36 53 -6 82 c-9 117 -62 333 -83 343 -48 21 -59 16 -66 -27 -4 -25 -2 -46 5 -55 6 -7 8 -22 4 -33 -3 -11 1 -47 10 -81 26 -101 3 -140 -85 -140 -50 0 -58 3 -68 24 -8 19 -23 26 -76 36 -37 7 -69 16 -72 21 -3 5 -10 6 -16 3 -6 -4 -8 -2 -4 4 8 13 -64 73 -77 65 -6 -4 -7 -1 -2 6 4 8 -6 27 -28 49 -49 51 -90 137 -82 170 11 46 45 81 128 135 119 78 225 124 335 147 54 10 162 42 240 69 149 52 213 92 263 162 11 16 26 29 33 29 8 0 19 19 25 43 31 110 32 116 15 167 -14 43 -24 54 -82 92 -37 23 -69 45 -72 48 -12 13 -80 39 -130 50 -30 7 -75 22 -100 33 -35 17 -69 22 -150 25 -97 3 -106 2 -120 -17z"/>
</g>


</svg>